<svg width="1042" height="136" viewBox="0 0 1042 136" fill="none" xmlns="http://www.w3.org/2000/svg">
<path d="M36.992 96.24C39.7653 96.24 42.368 95.7067 44.8 94.64C47.2747 93.5307 49.728 92.1227 52.16 90.416L61.184 103.216C58.1973 105.776 54.5493 107.909 50.24 109.616C45.9733 111.323 41.1947 112.176 35.904 112.176C28.608 112.176 22.336 110.683 17.088 107.696C11.84 104.667 7.808 100.485 4.992 95.152C2.176 89.776 0.768001 83.5467 0.768001 76.464C0.768001 69.3813 2.19733 63.088 5.056 57.584C7.95733 52.0373 12.0533 47.6853 17.344 44.528C22.6773 41.3707 28.992 39.792 36.288 39.792C41.4507 39.792 46.0373 40.5173 50.048 41.968C54.1013 43.376 57.8133 45.488 61.184 48.304L52.416 60.464C50.112 58.8427 47.68 57.584 45.12 56.688C42.56 55.792 39.8933 55.344 37.12 55.344C32.5547 55.344 28.864 56.9653 26.048 60.208C23.2747 63.408 21.888 68.8267 21.888 76.464C21.888 81.456 22.5493 85.4027 23.872 88.304C25.1947 91.1627 26.9867 93.2107 29.248 94.448C31.552 95.6427 34.1333 96.24 36.992 96.24ZM107.15 39.792C114.147 39.792 120.099 41.2853 125.006 44.272C129.913 47.2587 133.667 51.4613 136.27 56.88C138.873 62.256 140.174 68.5707 140.174 75.824C140.174 83.376 138.851 89.8827 136.206 95.344C133.603 100.763 129.849 104.923 124.942 107.824C120.035 110.725 114.105 112.176 107.15 112.176C100.238 112.176 94.3073 110.747 89.358 107.888C84.4513 105.029 80.6753 100.891 78.03 95.472C75.4273 90.0533 74.126 83.5467 74.126 75.952C74.126 68.7413 75.4273 62.4267 78.03 57.008C80.6753 51.5893 84.4513 47.3653 89.358 44.336C94.3073 41.3067 100.238 39.792 107.15 39.792ZM107.15 54.704C103.011 54.704 99.9393 56.4107 97.934 59.824C95.9713 63.1947 94.99 68.5707 94.99 75.952C94.99 83.4613 95.9713 88.9013 97.934 92.272C99.9393 95.6427 103.011 97.328 107.15 97.328C111.289 97.328 114.339 95.6427 116.302 92.272C118.307 88.9013 119.31 83.4187 119.31 75.824C119.31 68.4853 118.307 63.1307 116.302 59.76C114.339 56.3893 111.289 54.704 107.15 54.704ZM154.46 110V42.032H172.124L173.532 49.904C176.561 46.4907 179.761 43.952 183.132 42.288C186.503 40.624 190.343 39.792 194.652 39.792C200.455 39.792 205.02 41.5627 208.348 45.104C211.676 48.6453 213.34 53.6373 213.34 60.08V110H193.116V65.904C193.116 63.1307 192.924 60.9333 192.54 59.312C192.156 57.648 191.473 56.4747 190.492 55.792C189.553 55.0667 188.252 54.704 186.588 54.704C185.18 54.704 183.793 55.024 182.428 55.664C181.105 56.2613 179.804 57.136 178.524 58.288C177.244 59.44 175.964 60.8267 174.684 62.448V110H154.46ZM258.474 97.712C261.845 97.712 264.554 97.1787 266.602 96.112C268.693 95.0453 269.738 93.4453 269.738 91.312C269.738 89.8613 269.333 88.6453 268.522 87.664C267.711 86.6827 266.154 85.744 263.85 84.848C261.546 83.952 258.133 82.8853 253.61 81.648C249.471 80.5387 245.802 79.1307 242.602 77.424C239.445 75.7173 236.97 73.52 235.178 70.832C233.429 68.144 232.554 64.7947 232.554 60.784C232.554 56.7307 233.685 53.1253 235.946 49.968C238.207 46.8107 241.535 44.336 245.93 42.544C250.325 40.7093 255.701 39.792 262.058 39.792C268.117 39.792 273.386 40.5813 277.866 42.16C282.389 43.696 286.293 45.6587 289.578 48.048L281.514 59.952C278.698 58.2027 275.669 56.816 272.426 55.792C269.183 54.7253 265.919 54.192 262.634 54.192C259.349 54.192 256.895 54.64 255.274 55.536C253.695 56.3893 252.906 57.6907 252.906 59.44C252.906 60.592 253.311 61.5947 254.122 62.448C254.975 63.2587 256.554 64.112 258.858 65.008C261.162 65.8613 264.533 66.928 268.97 68.208C273.365 69.4453 277.183 70.8747 280.426 72.496C283.711 74.1173 286.25 76.2933 288.042 79.024C289.834 81.712 290.73 85.2747 290.73 89.712C290.73 94.6613 289.258 98.8213 286.314 102.192C283.37 105.52 279.466 108.016 274.602 109.68C269.738 111.344 264.405 112.176 258.602 112.176C252.031 112.176 246.229 111.237 241.194 109.36C236.159 107.483 231.871 105.008 228.33 101.936L238.506 90.544C241.151 92.592 244.138 94.2987 247.466 95.664C250.837 97.0293 254.506 97.712 258.474 97.712ZM337.4 39.792C344.397 39.792 350.349 41.2853 355.256 44.272C360.163 47.2587 363.917 51.4613 366.52 56.88C369.123 62.256 370.424 68.5707 370.424 75.824C370.424 83.376 369.101 89.8827 366.456 95.344C363.853 100.763 360.099 104.923 355.192 107.824C350.285 110.725 344.355 112.176 337.4 112.176C330.488 112.176 324.557 110.747 319.608 107.888C314.701 105.029 310.925 100.891 308.28 95.472C305.677 90.0533 304.376 83.5467 304.376 75.952C304.376 68.7413 305.677 62.4267 308.28 57.008C310.925 51.5893 314.701 47.3653 319.608 44.336C324.557 41.3067 330.488 39.792 337.4 39.792ZM337.4 54.704C333.261 54.704 330.189 56.4107 328.184 59.824C326.221 63.1947 325.24 68.5707 325.24 75.952C325.24 83.4613 326.221 88.9013 328.184 92.272C330.189 95.6427 333.261 97.328 337.4 97.328C341.539 97.328 344.589 95.6427 346.552 92.272C348.557 88.9013 349.56 83.4187 349.56 75.824C349.56 68.4853 348.557 63.1307 346.552 59.76C344.589 56.3893 341.539 54.704 337.4 54.704ZM420.166 15.024V88.624C420.166 91.3547 420.934 93.3173 422.47 94.512C424.049 95.664 426.203 96.24 428.934 96.24C430.683 96.24 432.369 96.048 433.99 95.664C435.611 95.2373 437.126 94.7467 438.534 94.192L443.398 107.696C441.094 108.891 438.321 109.936 435.078 110.832C431.835 111.728 428.059 112.176 423.75 112.176C415.558 112.176 409.542 109.829 405.702 105.136C401.862 100.4 399.942 94.064 399.942 86.128V28.848H379.91V15.024H420.166ZM478.996 81.904C479.465 85.616 480.425 88.624 481.876 90.928C483.369 93.1893 485.268 94.8533 487.572 95.92C489.876 96.944 492.457 97.456 495.316 97.456C498.431 97.456 501.439 96.944 504.34 95.92C507.241 94.896 510.036 93.5307 512.724 91.824L520.852 102.832C517.652 105.563 513.769 107.803 509.204 109.552C504.681 111.301 499.519 112.176 493.716 112.176C485.951 112.176 479.444 110.64 474.196 107.568C468.948 104.453 465.001 100.187 462.356 94.768C459.711 89.3493 458.388 83.12 458.388 76.08C458.388 69.3813 459.668 63.3013 462.228 57.84C464.788 52.336 468.521 47.9627 473.428 44.72C478.377 41.4347 484.415 39.792 491.54 39.792C498.025 39.792 503.636 41.1787 508.372 43.952C513.151 46.7253 516.841 50.7147 519.444 55.92C522.089 61.1253 523.412 67.376 523.412 74.672C523.412 75.824 523.369 77.0613 523.284 78.384C523.241 79.7067 523.156 80.88 523.028 81.904H478.996ZM491.54 53.36C487.913 53.36 484.991 54.6613 482.772 57.264C480.553 59.8667 479.209 64.0267 478.74 69.744H503.7C503.657 64.7947 502.697 60.8267 500.82 57.84C498.943 54.8533 495.849 53.36 491.54 53.36ZM553.378 97.904C553.378 95.3013 554.018 92.9333 555.298 90.8C556.578 88.624 558.306 86.896 560.482 85.616C562.658 84.2933 565.047 83.632 567.65 83.632C570.295 83.632 572.685 84.2933 574.818 85.616C576.994 86.896 578.722 88.624 580.002 90.8C581.282 92.9333 581.922 95.3013 581.922 97.904C581.922 100.464 581.282 102.832 580.002 105.008C578.722 107.184 576.994 108.912 574.818 110.192C572.685 111.515 570.295 112.176 567.65 112.176C565.047 112.176 562.658 111.515 560.482 110.192C558.306 108.912 556.578 107.184 555.298 105.008C554.018 102.832 553.378 100.464 553.378 97.904ZM650.416 15.024V88.624C650.416 91.3547 651.184 93.3173 652.72 94.512C654.299 95.664 656.453 96.24 659.184 96.24C660.933 96.24 662.619 96.048 664.24 95.664C665.861 95.2373 667.376 94.7467 668.784 94.192L673.648 107.696C671.344 108.891 668.571 109.936 665.328 110.832C662.085 111.728 658.309 112.176 654 112.176C645.808 112.176 639.792 109.829 635.952 105.136C632.112 100.4 630.192 94.064 630.192 86.128V28.848H610.16V15.024H650.416ZM721.15 39.792C728.147 39.792 734.099 41.2853 739.006 44.272C743.913 47.2587 747.667 51.4613 750.27 56.88C752.873 62.256 754.174 68.5707 754.174 75.824C754.174 83.376 752.851 89.8827 750.206 95.344C747.603 100.763 743.849 104.923 738.942 107.824C734.035 110.725 728.105 112.176 721.15 112.176C714.238 112.176 708.307 110.747 703.358 107.888C698.451 105.029 694.675 100.891 692.03 95.472C689.427 90.0533 688.126 83.5467 688.126 75.952C688.126 68.7413 689.427 62.4267 692.03 57.008C694.675 51.5893 698.451 47.3653 703.358 44.336C708.307 41.3067 714.238 39.792 721.15 39.792ZM721.15 54.704C717.011 54.704 713.939 56.4107 711.934 59.824C709.971 63.1947 708.99 68.5707 708.99 75.952C708.99 83.4613 709.971 88.9013 711.934 92.272C713.939 95.6427 717.011 97.328 721.15 97.328C725.289 97.328 728.339 95.6427 730.302 92.272C732.307 88.9013 733.31 83.4187 733.31 75.824C733.31 68.4853 732.307 63.1307 730.302 59.76C728.339 56.3893 725.289 54.704 721.15 54.704ZM869.594 65.2C869.594 70.4907 869.999 75.376 870.81 79.856C871.621 84.2933 872.965 88.6027 874.842 92.784C876.719 96.9653 879.215 101.232 882.33 105.584C885.445 109.893 889.306 114.544 893.914 119.536L882.138 130.16C875.397 124.357 869.551 118.235 864.602 111.792C859.653 105.349 855.834 98.3093 853.146 90.672C850.458 83.0347 849.114 74.544 849.114 65.2C849.114 55.856 850.458 47.3653 853.146 39.728C855.834 32.0907 859.653 25.0507 864.602 18.608C869.551 12.1653 875.397 6.04266 882.138 0.239998L893.914 10.864C889.605 15.5573 885.914 20.0587 882.842 24.368C879.77 28.6347 877.253 32.9013 875.29 37.168C873.327 41.4347 871.877 45.8507 870.938 50.416C870.042 54.9813 869.594 59.9093 869.594 65.2ZM956.456 65.2C956.456 59.9093 955.987 54.9813 955.048 50.416C954.152 45.8507 952.723 41.4347 950.76 37.168C948.797 32.9013 946.28 28.6347 943.208 24.368C940.136 20.0587 936.445 15.5573 932.136 10.864L943.912 0.239998C950.653 6.04266 956.499 12.1653 961.448 18.608C966.397 25.0507 970.216 32.0907 972.904 39.728C975.592 47.3653 976.936 55.856 976.936 65.2C976.936 74.544 975.592 83.0347 972.904 90.672C970.216 98.3093 966.397 105.349 961.448 111.792C956.499 118.235 950.653 124.357 943.912 130.16L932.136 119.536C936.744 114.544 940.605 109.893 943.72 105.584C946.835 101.232 949.331 96.9653 951.208 92.784C953.085 88.6027 954.429 84.2933 955.24 79.856C956.051 75.376 956.456 70.4907 956.456 65.2ZM1028.15 84.784C1031.95 84.784 1035.13 86.064 1037.69 88.624C1040.25 91.1413 1041.53 94.2987 1041.53 98.096C1041.53 100.443 1041.06 102.896 1040.12 105.456C1039.22 107.973 1037.92 111.195 1036.21 115.12L1027.32 135.28H1014.26L1020.53 109.04C1016.61 106.523 1014.65 102.832 1014.65 97.968C1014.65 94.2133 1015.95 91.0773 1018.55 88.56C1021.15 86.0427 1024.35 84.784 1028.15 84.784ZM1028.15 41.008C1031.9 41.008 1035.06 42.352 1037.62 45.04C1040.22 47.6853 1041.53 50.8213 1041.53 54.448C1041.53 58.0747 1040.22 61.2107 1037.62 63.856C1035.06 66.5013 1031.9 67.824 1028.15 67.824C1024.4 67.824 1021.2 66.5013 1018.55 63.856C1015.95 61.2107 1014.65 58.0747 1014.65 54.448C1014.65 52.016 1015.24 49.7973 1016.44 47.792C1017.68 45.744 1019.32 44.1013 1021.37 42.864C1023.41 41.6267 1025.68 41.008 1028.15 41.008Z" fill="black"/>
<path d="M797.388 19.056C804.641 19.056 810.679 20.5493 815.5 23.536C820.321 26.5227 823.948 30.6827 826.38 36.016C828.812 41.3067 830.028 47.4507 830.028 54.448C830.028 62.9387 828.94 70.4693 826.764 77.04C824.631 83.568 821.345 89.2213 816.908 94C812.513 98.7787 806.903 102.811 800.076 106.096C793.292 109.339 785.249 111.92 775.948 113.84L771.788 99.632C779.383 97.712 785.783 95.3653 790.988 92.592C796.193 89.776 800.289 86.384 803.276 82.416C806.263 78.4053 808.225 73.6693 809.164 68.208V61.36C809.249 55.088 809.015 49.8827 808.46 45.744C807.948 41.6053 806.817 38.5333 805.068 36.528C803.361 34.48 800.759 33.456 797.26 33.456C793.633 33.456 790.753 34.8213 788.62 37.552C786.487 40.2827 785.42 44.5493 785.42 50.352C785.42 55.8133 786.487 59.6533 788.62 61.872C790.796 64.0907 793.399 65.2 796.428 65.2C799.372 65.2 802.039 64.56 804.428 63.28C806.817 62 809.228 60.144 811.66 57.712L811.404 69.104C808.289 72.304 805.068 74.8213 801.74 76.656C798.455 78.448 794.593 79.344 790.156 79.344C785.505 79.344 781.281 78.1707 777.484 75.824C773.687 73.4773 770.657 70.1707 768.396 65.904C766.177 61.6373 765.068 56.6453 765.068 50.928C765.068 44.528 766.476 38.9387 769.292 34.16C772.151 29.3813 776.012 25.6693 780.876 23.024C785.783 20.3787 791.287 19.056 797.388 19.056Z" fill="#0368FF"/>
</svg>
