<svg width="656" height="96" viewBox="0 0 656 96" fill="none" xmlns="http://www.w3.org/2000/svg">
<path d="M34.016 95.792C24.3733 95.792 16.3093 92.5493 9.824 86.064C3.424 79.5787 0.224 71.5573 0.224 62C0.224 52.4427 3.424 44.4213 9.824 37.936C16.3093 31.4507 24.3733 28.208 34.016 28.208C40.2453 28.208 45.92 29.7013 51.04 32.688C56.16 35.6747 60.0427 39.6853 62.688 44.72L48.48 53.04C47.2 50.3947 45.2373 48.304 42.592 46.768C40.032 45.232 37.1307 44.464 33.888 44.464C28.9387 44.464 24.8427 46.128 21.6 49.456C18.3573 52.6987 16.736 56.88 16.736 62C16.736 67.0347 18.3573 71.216 21.6 74.544C24.8427 77.7867 28.9387 79.408 33.888 79.408C37.216 79.408 40.16 78.6827 42.72 77.232C45.3653 75.696 47.328 73.6053 48.608 70.96L62.944 79.152C60.128 84.1867 56.16 88.24 51.04 91.312C45.92 94.2987 40.2453 95.792 34.016 95.792ZM125.205 86.064C118.634 92.5493 110.613 95.792 101.141 95.792C91.669 95.792 83.6477 92.5493 77.077 86.064C70.5917 79.4933 67.349 71.472 67.349 62C67.349 52.528 70.5917 44.5493 77.077 38.064C83.6477 31.4933 91.669 28.208 101.141 28.208C110.613 28.208 118.634 31.4933 125.205 38.064C131.776 44.5493 135.061 52.528 135.061 62C135.061 71.472 131.776 79.4933 125.205 86.064ZM88.725 74.672C92.053 78 96.1917 79.664 101.141 79.664C106.09 79.664 110.229 78 113.557 74.672C116.885 71.344 118.549 67.12 118.549 62C118.549 56.88 116.885 52.656 113.557 49.328C110.229 46 106.09 44.336 101.141 44.336C96.1917 44.336 92.053 46 88.725 49.328C85.4823 52.656 83.861 56.88 83.861 62C83.861 67.12 85.4823 71.344 88.725 74.672ZM182.261 28.208C189.258 28.208 195.018 30.5547 199.541 35.248C204.149 39.9413 206.453 46.4267 206.453 54.704V94H189.941V56.752C189.941 52.4853 188.789 49.2427 186.485 47.024C184.181 44.72 181.109 43.568 177.269 43.568C173.002 43.568 169.589 44.8907 167.029 47.536C164.469 50.1813 163.189 54.1493 163.189 59.44V94H146.677V30H163.189V37.168C167.2 31.1947 173.557 28.208 182.261 28.208ZM235.784 48.176C235.784 49.8827 236.893 51.2907 239.112 52.4C241.416 53.424 244.189 54.3627 247.432 55.216C250.675 55.984 253.917 57.008 257.16 58.288C260.403 59.4827 263.133 61.5307 265.352 64.432C267.656 67.3333 268.808 70.96 268.808 75.312C268.808 81.8827 266.333 86.96 261.384 90.544C256.52 94.0427 250.419 95.792 243.08 95.792C229.939 95.792 220.979 90.7147 216.2 80.56L230.536 72.496C232.413 78.0427 236.595 80.816 243.08 80.816C248.968 80.816 251.912 78.9813 251.912 75.312C251.912 73.6053 250.76 72.24 248.456 71.216C246.237 70.1067 243.507 69.1253 240.264 68.272C237.021 67.4187 233.779 66.352 230.536 65.072C227.293 63.792 224.52 61.7867 222.216 59.056C219.997 56.24 218.888 52.7413 218.888 48.56C218.888 42.2453 221.192 37.296 225.8 33.712C230.493 30.0427 236.296 28.208 243.208 28.208C248.413 28.208 253.149 29.4027 257.416 31.792C261.683 34.096 265.053 37.424 267.528 41.776L253.448 49.456C251.4 45.104 247.987 42.928 243.208 42.928C241.075 42.928 239.283 43.3973 237.832 44.336C236.467 45.2747 235.784 46.5547 235.784 48.176ZM333.08 86.064C326.509 92.5493 318.488 95.792 309.016 95.792C299.544 95.792 291.523 92.5493 284.952 86.064C278.467 79.4933 275.224 71.472 275.224 62C275.224 52.528 278.467 44.5493 284.952 38.064C291.523 31.4933 299.544 28.208 309.016 28.208C318.488 28.208 326.509 31.4933 333.08 38.064C339.651 44.5493 342.936 52.528 342.936 62C342.936 71.472 339.651 79.4933 333.08 86.064ZM296.6 74.672C299.928 78 304.067 79.664 309.016 79.664C313.965 79.664 318.104 78 321.432 74.672C324.76 71.344 326.424 67.12 326.424 62C326.424 56.88 324.76 52.656 321.432 49.328C318.104 46 313.965 44.336 309.016 44.336C304.067 44.336 299.928 46 296.6 49.328C293.357 52.656 291.736 56.88 291.736 62C291.736 67.12 293.357 71.344 296.6 74.672ZM354.552 94V0.559998H371.064V94H354.552ZM400.129 68.784C402.348 76.8053 408.364 80.816 418.177 80.816C424.492 80.816 429.27 78.6827 432.513 74.416L445.825 82.096C439.51 91.2267 430.209 95.792 417.921 95.792C407.34 95.792 398.849 92.592 392.449 86.192C386.049 79.792 382.849 71.728 382.849 62C382.849 52.3573 386.006 44.336 392.321 37.936C398.636 31.4507 406.742 28.208 416.641 28.208C426.028 28.208 433.75 31.4507 439.809 37.936C445.953 44.4213 449.025 52.4427 449.025 62C449.025 64.1333 448.812 66.3947 448.385 68.784H400.129ZM399.873 55.984H432.513C431.574 51.632 429.612 48.3893 426.625 46.256C423.724 44.1227 420.396 43.056 416.641 43.056C412.204 43.056 408.534 44.208 405.633 46.512C402.732 48.7307 400.812 51.888 399.873 55.984ZM472.707 92.464C470.574 94.5973 468.014 95.664 465.027 95.664C462.04 95.664 459.48 94.5973 457.347 92.464C455.214 90.3307 454.147 87.7707 454.147 84.784C454.147 81.7973 455.214 79.2373 457.347 77.104C459.48 74.9707 462.04 73.904 465.027 73.904C468.014 73.904 470.574 74.9707 472.707 77.104C474.84 79.2373 475.907 81.7973 475.907 84.784C475.907 87.7707 474.84 90.3307 472.707 92.464ZM489.677 94V0.559998H506.189V94H489.677ZM575.83 86.064C569.259 92.5493 561.238 95.792 551.766 95.792C542.294 95.792 534.273 92.5493 527.702 86.064C521.217 79.4933 517.974 71.472 517.974 62C517.974 52.528 521.217 44.5493 527.702 38.064C534.273 31.4933 542.294 28.208 551.766 28.208C561.238 28.208 569.259 31.4933 575.83 38.064C582.401 44.5493 585.686 52.528 585.686 62C585.686 71.472 582.401 79.4933 575.83 86.064ZM539.35 74.672C542.678 78 546.817 79.664 551.766 79.664C556.715 79.664 560.854 78 564.182 74.672C567.51 71.344 569.174 67.12 569.174 62C569.174 56.88 567.51 52.656 564.182 49.328C560.854 46 556.715 44.336 551.766 44.336C546.817 44.336 542.678 46 539.35 49.328C536.107 52.656 534.486 56.88 534.486 62C534.486 67.12 536.107 71.344 539.35 74.672Z" fill="black"/>
<path d="M655.09 33.712C655.09 40.624 653.298 46.6827 649.714 51.888H649.842L621.938 94H601.714L621.682 64.816C612.381 64.6453 604.786 61.7013 598.898 55.984C593.095 50.1813 590.194 42.7573 590.194 33.712C590.194 24.5813 593.181 17.1147 599.154 11.312C605.213 5.50933 613.021 2.60799 622.578 2.60799C632.221 2.60799 640.029 5.50933 646.002 11.312C652.061 17.0293 655.09 24.496 655.09 33.712ZM607.73 33.712C607.73 38.1493 609.138 41.6907 611.954 44.336C614.855 46.9813 618.397 48.304 622.578 48.304C626.93 48.304 630.514 46.9813 633.33 44.336C636.146 41.6907 637.554 38.1493 637.554 33.712C637.554 29.2747 636.146 25.776 633.33 23.216C630.514 20.5707 626.93 19.248 622.578 19.248C618.397 19.248 614.855 20.5707 611.954 23.216C609.138 25.8613 607.73 29.36 607.73 33.712Z" fill="#55CCFF"/>
</svg>
